<?xml version="1.0" encoding="iso-8859-1"?>
<!-- Uploaded to: SVG Repo, www.svgrepo.com, Generator: SVG Repo Mixer Tools -->
<svg fill="#000000" version="1.1" id="Layer_1" xmlns="http://www.w3.org/2000/svg" xmlns:xlink="http://www.w3.org/1999/xlink" 
	 viewBox="0 0 512 512" xml:space="preserve">
<g>
	<g>
		<g>
			<path d="M335.18,325.317h-41.975c-7.552,0-13.696,6.144-13.696,13.697v53.193c0,7.552,6.144,13.696,13.696,13.696h41.975
				c7.552,0,13.695-6.144,13.695-13.696v-53.193C348.875,331.46,342.732,325.317,335.18,325.317z M332.998,390.025h-37.612v-48.831
				h37.612V390.025z"/>
			<rect x="301.956" y="347.724" width="24.473" height="15.877"/>
			<circle cx="314.397" cy="107.498" r="7.912"/>
			<rect x="301.956" y="261.805" width="24.473" height="15.877"/>
			<path d="M499.786,432.548h-18.234V209.685c10.104-0.129,18.286-8.378,18.286-18.512v-24.89c0-10.213-8.31-18.523-18.523-18.523
				H424l-93.504-93.503c-9.828-9.829-25.824-9.826-35.654,0l-25.181,25.181V64.93c0-13.901-11.31-25.21-25.21-25.21h-60.825
				c-13.901,0-25.21,11.31-25.21,25.21v23.889c-2.889-1.156-6.036-1.798-9.334-1.798H88.258c-13.901,0-25.21,11.309-25.21,25.21
				v35.53H30.683c-10.213,0-18.523,8.31-18.523,18.523v24.89c0,10.134,8.183,18.384,18.287,18.512v222.863H12.214
				C5.48,432.548,0,438.027,0,444.763v15.302c0,6.735,5.48,12.215,12.214,12.215h487.573c6.734,0,12.214-5.48,12.214-12.215v-15.302
				C512,438.027,506.52,432.548,499.786,432.548z M272.383,99.171l33.687-33.686c3.64-3.638,9.561-3.639,13.2,0l82.277,82.276
				h-35.66l-24.558-24.558l-11.227,11.226l13.33,13.33h-35.657l-35.393-35.392c-1.749-1.749-2.713-4.093-2.713-6.599
				C269.67,103.264,270.634,100.92,272.383,99.171z M269.662,132.102L269.662,132.102l15.659,15.658h-15.659V132.102z
				 M174.293,64.93h0.001c0-5.146,4.186-9.333,9.333-9.333h60.825c5.146,0,9.333,4.187,9.333,9.333v82.831h-31.807V93.596H206.1
				v54.165h-31.807V64.93z M78.923,112.23h0.001c0-5.146,4.186-9.333,9.333-9.333h60.825c5.146,0,9.333,4.186,9.333,9.333v35.53
				H78.923V112.23z M28.037,191.173v-24.89c0-1.434,1.211-2.646,2.646-2.646h450.632c1.434,0,2.646,1.212,2.646,2.646v24.89
				c0,1.434-1.212,2.646-2.646,2.646H30.683C29.249,193.819,28.037,192.607,28.037,191.173z M229.044,263.124
				c-1.492-1.521-3.534-2.377-5.665-2.377H80.261c-4.327,0-7.857,3.465-7.938,7.791l-3.04,164.011H46.325V209.698h419.351v222.851
				H228.281l3.035-163.715C231.355,266.702,230.537,264.644,229.044,263.124z M215.291,276.624l-2.89,155.925H85.164l2.89-155.925
				H215.291z M496.123,456.403H15.877v-7.978h480.246V456.403z"/>
			<circle cx="113.41" cy="393.357" r="7.912"/>
			<rect x="129.847" y="316.828" width="43.946" height="15.877"/>
			<path d="M105.497,370.202h92.645c4.385,0,7.939-3.554,7.939-7.939v-66.525c0-4.384-3.553-7.939-7.939-7.939h-92.645
				c-4.385,0-7.939,3.554-7.939,7.939v66.525C97.559,366.647,101.112,370.202,105.497,370.202z M113.436,303.676h76.768v50.648
				h-76.768V303.676z"/>
			<path d="M265.255,426.547h177.86c4.385,0,7.939-3.554,7.939-7.939V226.69c0-4.384-3.553-7.939-7.939-7.939h-177.86
				c-4.385,0-7.939,3.554-7.939,7.939v191.918C257.316,422.993,260.87,426.547,265.255,426.547z M273.193,234.629h161.983V410.67
				H273.193V234.629z"/>
			<rect x="381.94" y="347.724" width="24.473" height="15.877"/>
			<path d="M335.18,239.399h-41.975c-7.552,0-13.696,6.144-13.696,13.696v53.193c0,7.552,6.144,13.696,13.696,13.696h41.975
				c7.552,0,13.695-6.144,13.695-13.696v-53.193C348.875,245.544,342.732,239.399,335.18,239.399z M332.998,304.107h-37.612v-48.831
				h37.612V304.107z"/>
			<path d="M415.163,325.317h-41.975c-7.552,0-13.695,6.144-13.695,13.697v53.193c0,7.552,6.143,13.696,13.695,13.696h41.975
				c7.552,0,13.696-6.144,13.696-13.696v-53.193C428.86,331.46,422.716,325.317,415.163,325.317z M412.983,390.025h-37.612v-48.831
				h37.612V390.025z"/>
			<path d="M415.163,239.399h-41.975c-7.552,0-13.695,6.144-13.695,13.696v53.193c0,7.552,6.143,13.696,13.695,13.696h41.975
				c7.552,0,13.696-6.144,13.696-13.696v-53.193C428.86,245.544,422.716,239.399,415.163,239.399z M412.983,304.107h-37.612v-48.831
				h37.612V304.107z"/>
			<rect x="381.94" y="261.805" width="24.473" height="15.877"/>
		</g>
	</g>
</g>
</svg>